<?xml version="1.0" encoding="UTF-8"?>
<svg xmlns="http://www.w3.org/2000/svg" xmlns:xlink="http://www.w3.org/1999/xlink" width="12pt" height="12pt" viewBox="0 0 12 12" version="1.1">
    <g id="surface1">
        <path style=" stroke:none;fill-rule:nonzero;fill:#3F51B5;fill-opacity:1;" d="M 9.75 10.75 L 2.25 10.75 C 1.699219 10.75 1.25 10.300781 1.25 9.75 L 1.25 2.25 C 1.25 1.699219 1.699219 1.25 2.25 1.25 L 9.75 1.25 C 10.300781 1.25 10.75 1.699219 10.75 2.25 L 10.75 9.75 C 10.75 10.300781 10.300781 10.75 9.75 10.75 "/>
        <path style=" stroke:none;fill-rule:nonzero;fill:#B3E5FC;fill-opacity:1;" d="M 8.398438 6.351563 C 8.425781 6.25 8.425781 6.125 8.425781 6 C 8.425781 5.875 8.425781 5.773438 8.398438 5.648438 L 9.101563 5.148438 C 9.175781 5.101563 9.199219 5 9.148438 4.925781 L 8.476563 3.773438 C 8.425781 3.699219 8.351563 3.675781 8.273438 3.699219 L 7.5 4.074219 C 7.324219 3.925781 7.125 3.824219 6.898438 3.726563 L 6.824219 2.875 C 6.824219 2.800781 6.75 2.726563 6.675781 2.726563 L 5.351563 2.726563 C 5.273438 2.726563 5.199219 2.800781 5.199219 2.875 L 5.101563 3.75 C 4.875 3.824219 4.699219 3.949219 4.5 4.101563 L 3.726563 3.75 C 3.648438 3.726563 3.550781 3.75 3.523438 3.824219 L 2.851563 4.976563 C 2.800781 5.050781 2.824219 5.148438 2.898438 5.199219 L 3.601563 5.699219 C 3.574219 5.800781 3.574219 5.925781 3.574219 6.050781 C 3.574219 6.175781 3.574219 6.273438 3.601563 6.398438 L 2.898438 6.898438 C 2.824219 6.949219 2.824219 7.050781 2.851563 7.125 L 3.523438 8.273438 C 3.574219 8.351563 3.648438 8.375 3.726563 8.351563 L 4.5 8 C 4.675781 8.148438 4.875 8.25 5.101563 8.351563 L 5.175781 9.199219 C 5.175781 9.273438 5.25 9.351563 5.324219 9.351563 L 6.648438 9.351563 C 6.726563 9.351563 6.800781 9.273438 6.800781 9.199219 L 6.875 8.351563 C 7.101563 8.273438 7.273438 8.148438 7.476563 8 L 8.25 8.351563 C 8.324219 8.375 8.425781 8.351563 8.449219 8.273438 L 9.125 7.125 C 9.175781 7.050781 9.148438 6.949219 9.074219 6.898438 Z M 6 7.25 C 5.300781 7.25 4.75 6.699219 4.75 6 C 4.75 5.300781 5.300781 4.75 6 4.75 C 6.699219 4.75 7.25 5.300781 7.25 6 C 7.25 6.699219 6.699219 7.25 6 7.25 "/>
    </g>
</svg>
