<?xml version="1.0" encoding="UTF-8"?>
<svg xmlns="http://www.w3.org/2000/svg" xmlns:xlink="http://www.w3.org/1999/xlink" width="30pt" height="30pt" viewBox="0 0 50 50" version="1.1">
<g id="surface1">
<path style=" stroke:none;fill-rule:nonzero;fill:#000000;fill-opacity:1;" d="M 2.976563 8.929688 L 2.976563 40.675781 L 4.960938 40.675781 L 4.960938 8.929688 Z M 6.945313 8.929688 L 6.945313 40.675781 L 9.921875 40.675781 L 9.921875 8.929688 Z M 11.90625 8.929688 L 11.90625 40.675781 L 19.839844 40.675781 L 19.839844 8.929688 Z M 21.824219 8.929688 L 21.824219 40.675781 L 23.808594 40.675781 L 23.808594 8.929688 Z M 25.792969 8.929688 L 25.792969 40.675781 L 28.769531 40.675781 L 28.769531 8.929688 Z M 30.753906 8.929688 L 30.753906 40.675781 L 32.738281 40.675781 L 32.738281 8.929688 Z M 34.722656 8.929688 L 34.722656 40.675781 L 38.691406 40.675781 L 38.691406 8.929688 Z M 40.675781 8.929688 L 40.675781 40.675781 L 42.660156 40.675781 L 42.660156 8.929688 Z M 44.644531 8.929688 L 44.644531 40.675781 L 46.628906 40.675781 L 46.628906 8.929688 Z "/>
</g>
</svg>
