<?xml version="1.0" encoding="UTF-8"?>
<svg xmlns="http://www.w3.org/2000/svg" xmlns:xlink="http://www.w3.org/1999/xlink" width="12pt" height="12pt" viewBox="0 0 12 12" version="1.1">
    <g id="surface1">
        <path style=" stroke:none;fill-rule:nonzero;fill:#B6DCFE;fill-opacity:1;" d="M 5.398438 11.550781 C 4.988281 11.550781 4.648438 11.214844 4.648438 10.800781 L 4.648438 8.25 L 6.148438 8.25 L 6.148438 10.800781 C 6.148438 11.214844 5.8125 11.550781 5.398438 11.550781 Z "/>
        <path style=" stroke:none;fill-rule:nonzero;fill:#4788C7;fill-opacity:1;" d="M 6 8.398438 L 6 10.800781 C 6 11.132813 5.730469 11.398438 5.398438 11.398438 C 5.070313 11.398438 4.800781 11.132813 4.800781 10.800781 L 4.800781 8.398438 L 6 8.398438 M 6.300781 8.101563 L 4.5 8.101563 L 4.5 10.800781 C 4.5 11.296875 4.902344 11.699219 5.398438 11.699219 C 5.898438 11.699219 6.300781 11.296875 6.300781 10.800781 Z "/>
        <path style=" stroke:none;fill-rule:nonzero;fill:#B6DCFE;fill-opacity:1;" d="M 6.898438 11.25 C 6.488281 11.25 6.148438 10.914063 6.148438 10.5 L 6.148438 7.949219 L 7.648438 7.949219 L 7.648438 10.5 C 7.648438 10.914063 7.3125 11.25 6.898438 11.25 Z "/>
        <path style=" stroke:none;fill-rule:nonzero;fill:#4788C7;fill-opacity:1;" d="M 7.5 8.101563 L 7.5 10.5 C 7.5 10.832031 7.230469 11.101563 6.898438 11.101563 C 6.570313 11.101563 6.300781 10.832031 6.300781 10.5 L 6.300781 8.101563 L 7.5 8.101563 M 7.800781 7.800781 L 6 7.800781 L 6 10.5 C 6 10.996094 6.402344 11.398438 6.898438 11.398438 C 7.398438 11.398438 7.800781 10.996094 7.800781 10.5 Z "/>
        <path style=" stroke:none;fill-rule:nonzero;fill:#B6DCFE;fill-opacity:1;" d="M 8.398438 10.648438 C 7.988281 10.648438 7.648438 10.3125 7.648438 9.898438 L 7.648438 6.449219 L 9.148438 6.449219 L 9.148438 9.898438 C 9.148438 10.3125 8.8125 10.648438 8.398438 10.648438 Z "/>
        <path style=" stroke:none;fill-rule:nonzero;fill:#4788C7;fill-opacity:1;" d="M 9 6.601563 L 9 9.898438 C 9 10.230469 8.730469 10.5 8.398438 10.5 C 8.070313 10.5 7.800781 10.230469 7.800781 9.898438 L 7.800781 6.601563 L 9 6.601563 M 9.300781 6.300781 L 7.5 6.300781 L 7.5 9.898438 C 7.5 10.398438 7.902344 10.800781 8.398438 10.800781 C 8.898438 10.800781 9.300781 10.398438 9.300781 9.898438 Z "/>
        <path style=" stroke:none;fill-rule:nonzero;fill:#98CCFD;fill-opacity:1;" d="M 3.597656 7.570313 L 7.574219 0.507813 L 11.496094 2.714844 L 7.519531 9.777344 Z "/>
        <path style=" stroke:none;fill-rule:nonzero;fill:#4788C7;fill-opacity:1;" d="M 7.628906 0.707031 L 11.292969 2.773438 L 7.464844 9.574219 L 3.804688 7.511719 L 7.628906 0.707031 M 7.515625 0.300781 L 3.394531 7.628906 L 7.578125 9.984375 L 11.699219 2.65625 Z "/>
        <path style=" stroke:none;fill-rule:nonzero;fill:#98CCFD;fill-opacity:1;" d="M 3.433594 8.460938 L 6.03125 0.789063 L 10.308594 2.230469 L 7.710938 9.898438 Z "/>
        <path style=" stroke:none;fill-rule:nonzero;fill:#4788C7;fill-opacity:1;" d="M 6.125 0.980469 L 10.121094 2.324219 L 7.617188 9.710938 L 3.621094 8.367188 L 6.125 0.980469 M 5.9375 0.601563 L 3.242188 8.554688 L 7.804688 10.089844 L 10.5 2.136719 Z "/>
        <path style=" stroke:none;fill-rule:nonzero;fill:#FFFFFF;fill-opacity:1;" d="M 7.335938 3.976563 C 7.179688 3.925781 7.023438 3.898438 6.871094 3.898438 C 6.265625 3.898438 5.703125 4.28125 5.496094 4.882813 C 5.242188 5.636719 5.648438 6.457031 6.40625 6.710938 C 6.5625 6.765625 6.71875 6.789063 6.871094 6.789063 C 7.476563 6.789063 8.039063 6.410156 8.246094 5.804688 C 8.5 5.050781 8.09375 4.230469 7.335938 3.976563 Z "/>
        <path style=" stroke:none;fill-rule:nonzero;fill:#FFFFFF;fill-opacity:1;" d="M 7.992188 2.136719 C 7.929688 2.113281 7.867188 2.105469 7.800781 2.105469 C 7.550781 2.105469 7.320313 2.261719 7.234375 2.511719 C 7.128906 2.820313 7.296875 3.160156 7.609375 3.265625 C 7.675781 3.285156 7.738281 3.296875 7.800781 3.296875 C 8.050781 3.296875 8.285156 3.140625 8.367188 2.890625 C 8.472656 2.578125 8.304688 2.242188 7.992188 2.136719 Z "/>
        <path style=" stroke:none;fill-rule:nonzero;fill:#DFF0FE;fill-opacity:1;" d="M 7.332031 6.976563 C 7.15625 6.730469 6.878906 6.601563 6.597656 6.601563 C 6.417969 6.601563 6.234375 6.65625 6.074219 6.769531 L 3.683594 8.335938 C 3.660156 8.351563 3.632813 8.355469 3.613281 8.355469 C 3.496094 8.355469 3.410156 8.214844 3.496094 8.109375 L 4.199219 7.273438 L 4.800781 4.800781 L 3.511719 4.800781 C 3.375 4.800781 3.242188 4.847656 3.136719 4.929688 L 0.300781 6.898438 L 0.300781 11.699219 L 2.757813 11.699219 C 3.109375 11.699219 3.449219 11.578125 3.714844 11.355469 L 7.125 8.230469 C 7.527344 7.941406 7.621094 7.378906 7.332031 6.976563 Z "/>
        <path style="fill:none;stroke-width:1;stroke-linecap:round;stroke-linejoin:miter;stroke:#4788C7;stroke-opacity:1;stroke-miterlimit:4;" d="M 1.497396 23.268229 L 10.742188 16.848958 C 11.028646 16.614583 11.367188 16.497396 11.705729 16.497396 L 15.494792 16.497396 L 13.502604 24.0625 L 11.276042 26.705729 C 11.028646 27.005208 10.963542 27.408854 11.132813 27.760417 C 11.302083 28.125 11.653646 28.359375 12.03125 28.359375 C 12.200521 28.359375 12.356771 28.307292 12.513021 28.229167 L 20.520833 22.981771 C 20.963542 22.65625 21.471354 22.5 21.992188 22.5 C 22.799479 22.5 23.567708 22.890625 24.036458 23.541667 C 24.830729 24.661458 24.583333 26.223958 23.450521 27.03125 L 12.044271 37.486979 C 11.263021 38.138021 10.247396 38.502604 9.192708 38.502604 L 1.497396 38.502604 " transform="matrix(0.3,0,0,0.3,0,0)"/>
        <path style=" stroke:none;fill-rule:nonzero;fill:#98CCFD;fill-opacity:1;" d="M 4.515625 4.800781 L 3.492188 8.078125 L 3.496094 8.109375 C 3.390625 8.234375 3.539063 8.414063 3.683594 8.335938 L 4.503906 7.800781 L 5.046875 4.800781 Z "/>
        <path style=" stroke:none;fill-rule:nonzero;fill:#4788C7;fill-opacity:1;" d="M 4.515625 4.800781 L 3.464844 8.171875 C 3.464844 8.171875 3.464844 8.175781 3.464844 8.175781 C 3.441406 8.289063 3.5625 8.402344 3.683594 8.339844 L 3.738281 8.300781 L 4.828125 4.800781 Z "/>
    </g>
</svg>
