<?xml version="1.0" encoding="UTF-8"?>
<svg xmlns="http://www.w3.org/2000/svg" xmlns:xlink="http://www.w3.org/1999/xlink" width="30pt" height="30pt" viewBox="0 0 30 30" version="1.1">
    <g id="surface1">
        <path style=" stroke:none;fill-rule:nonzero;fill:#254225;fill-opacity:1;" d="M 13.851563 1.9375 C 12.757813 1.9375 11.875 2.820313 11.875 3.914063 L 11.875 18.714844 L 7.859375 18.714844 C 7.464844 18.714844 7.101563 18.953125 6.945313 19.320313 C 6.796875 19.691406 6.882813 20.117188 7.164063 20.398438 L 14.140625 27.378906 C 14.523438 27.761719 15.148438 27.761719 15.535156 27.378906 L 22.511719 20.398438 C 22.703125 20.210938 22.804688 19.960938 22.804688 19.703125 C 22.804688 19.574219 22.777344 19.445313 22.726563 19.320313 C 22.578125 18.953125 22.214844 18.714844 21.820313 18.714844 L 17.796875 18.714844 L 17.796875 3.914063 C 17.796875 2.820313 16.914063 1.9375 15.824219 1.9375 Z "/>
    </g>
</svg>
