<?xml version="1.0" encoding="UTF-8"?>
<svg xmlns="http://www.w3.org/2000/svg" xmlns:xlink="http://www.w3.org/1999/xlink" width="30pt" height="30pt" viewBox="0 0 30 30" version="1.1">
<g id="surface1">
<path style=" stroke:none;fill-rule:nonzero;fill:#FFA90F;fill-opacity:1;" d="M 4.933594 3.949219 C 4.957031 3.949219 7.339844 3.96875 9.757813 5.839844 C 12.890625 8.257813 14.621094 12.710938 14.789063 18.75 L 10.855469 18.75 C 10.457031 18.75 10.097656 18.988281 9.941406 19.359375 C 9.792969 19.730469 9.875 20.152344 10.15625 20.433594 L 17.066406 27.34375 C 17.449219 27.726563 18.074219 27.726563 18.460938 27.34375 L 25.367188 20.433594 C 25.648438 20.152344 25.734375 19.730469 25.585938 19.359375 C 25.429688 18.988281 25.066406 18.75 24.671875 18.75 L 20.707031 18.75 C 20.175781 2.453125 6.519531 1.972656 4.933594 1.972656 C 4.386719 1.972656 3.949219 2.417969 3.949219 2.960938 C 3.949219 3.503906 4.386719 3.949219 4.933594 3.949219 Z "/>
</g>
</svg>
