<?xml version="1.0" encoding="UTF-8"?>
<svg xmlns="http://www.w3.org/2000/svg" xmlns:xlink="http://www.w3.org/1999/xlink" width="30pt" height="30pt" viewBox="0 0 30 30" version="1.1">
<g id="surface1">
<path style=" stroke:none;fill-rule:nonzero;fill:#FFA90F;fill-opacity:1;" d="M 24.671875 3.949219 C 24.648438 3.949219 22.265625 3.96875 19.84375 5.839844 C 16.714844 8.257813 14.984375 12.710938 14.816406 18.75 L 18.75 18.75 C 19.148438 18.75 19.507813 18.988281 19.664063 19.359375 C 19.8125 19.730469 19.730469 20.152344 19.449219 20.433594 L 12.539063 27.34375 C 12.15625 27.726563 11.53125 27.726563 11.144531 27.34375 L 4.238281 20.433594 C 3.957031 20.152344 3.871094 19.730469 4.019531 19.359375 C 4.175781 18.988281 4.539063 18.75 4.933594 18.75 L 8.898438 18.75 C 9.429688 2.453125 23.085938 1.972656 24.671875 1.972656 C 25.21875 1.972656 25.65625 2.417969 25.65625 2.960938 C 25.65625 3.503906 25.21875 3.949219 24.671875 3.949219 Z "/>
</g>
</svg>
