<?xml version="1.0" encoding="UTF-8"?>
<svg xmlns="http://www.w3.org/2000/svg" xmlns:xlink="http://www.w3.org/1999/xlink" width="20pt" height="20pt" viewBox="0 0 20 20" version="1.1">
    <g id="surface1">
        <path style=" stroke:none;fill-rule:nonzero;fill:#DFF0FE;fill-opacity:1;" d="M 18.25 8.5 C 18.25 9.742188 17.242188 10.75 16 10.75 C 14.757813 10.75 13.75 9.742188 13.75 8.5 C 13.75 7.257813 14.757813 6.25 16 6.25 C 17.242188 6.25 18.25 7.257813 18.25 8.5 Z "/>
        <path style=" stroke:none;fill-rule:nonzero;fill:#4788C7;fill-opacity:1;" d="M 16 6.5 C 17.101563 6.5 18 7.398438 18 8.5 C 18 9.601563 17.101563 10.5 16 10.5 C 14.898438 10.5 14 9.601563 14 8.5 C 14 7.398438 14.898438 6.5 16 6.5 M 16 6 C 14.621094 6 13.5 7.121094 13.5 8.5 C 13.5 9.878906 14.621094 11 16 11 C 17.378906 11 18.5 9.878906 18.5 8.5 C 18.5 7.121094 17.378906 6 16 6 Z "/>
        <path style=" stroke:none;fill-rule:nonzero;fill:#98CCFD;fill-opacity:1;" d="M 12.25 16.25 L 12.25 16 C 12.25 13.933594 13.933594 12.25 16 12.25 C 18.066406 12.25 19.75 13.933594 19.75 16 L 19.75 16.25 Z "/>
        <path style=" stroke:none;fill-rule:nonzero;fill:#4788C7;fill-opacity:1;" d="M 16 12.5 C 17.929688 12.5 19.5 14.070313 19.5 16 L 12.5 16 C 12.5 14.070313 14.070313 12.5 16 12.5 M 16 12 C 13.789063 12 12 13.789063 12 16 L 12 16.5 L 20 16.5 L 20 16 C 20 13.789063 18.210938 12 16 12 Z "/>
        <path style=" stroke:none;fill-rule:nonzero;fill:#DFF0FE;fill-opacity:1;" d="M 6.25 8.5 C 6.25 9.742188 5.242188 10.75 4 10.75 C 2.757813 10.75 1.75 9.742188 1.75 8.5 C 1.75 7.257813 2.757813 6.25 4 6.25 C 5.242188 6.25 6.25 7.257813 6.25 8.5 Z "/>
        <path style=" stroke:none;fill-rule:nonzero;fill:#4788C7;fill-opacity:1;" d="M 4 6.5 C 5.101563 6.5 6 7.398438 6 8.5 C 6 9.601563 5.101563 10.5 4 10.5 C 2.898438 10.5 2 9.601563 2 8.5 C 2 7.398438 2.898438 6.5 4 6.5 M 4 6 C 2.621094 6 1.5 7.121094 1.5 8.5 C 1.5 9.878906 2.621094 11 4 11 C 5.378906 11 6.5 9.878906 6.5 8.5 C 6.5 7.121094 5.378906 6 4 6 Z "/>
        <path style=" stroke:none;fill-rule:nonzero;fill:#DFF0FE;fill-opacity:1;" d="M 9.25 3.75 C 9.25 4.855469 8.355469 5.75 7.25 5.75 C 6.144531 5.75 5.25 4.855469 5.25 3.75 C 5.25 2.644531 6.144531 1.75 7.25 1.75 C 8.355469 1.75 9.25 2.644531 9.25 3.75 Z "/>
        <path style=" stroke:none;fill-rule:nonzero;fill:#4788C7;fill-opacity:1;" d="M 7.25 2 C 8.214844 2 9 2.785156 9 3.75 C 9 4.714844 8.214844 5.5 7.25 5.5 C 6.285156 5.5 5.5 4.714844 5.5 3.75 C 5.5 2.785156 6.285156 2 7.25 2 M 7.25 1.5 C 6.007813 1.5 5 2.507813 5 3.75 C 5 4.992188 6.007813 6 7.25 6 C 8.492188 6 9.5 4.992188 9.5 3.75 C 9.5 2.507813 8.492188 1.5 7.25 1.5 Z "/>
        <path style=" stroke:none;fill-rule:nonzero;fill:#DFF0FE;fill-opacity:1;" d="M 14.75 3.75 C 14.75 4.855469 13.855469 5.75 12.75 5.75 C 11.644531 5.75 10.75 4.855469 10.75 3.75 C 10.75 2.644531 11.644531 1.75 12.75 1.75 C 13.855469 1.75 14.75 2.644531 14.75 3.75 Z "/>
        <path style=" stroke:none;fill-rule:nonzero;fill:#4788C7;fill-opacity:1;" d="M 12.75 2 C 13.714844 2 14.5 2.785156 14.5 3.75 C 14.5 4.714844 13.714844 5.5 12.75 5.5 C 11.785156 5.5 11 4.714844 11 3.75 C 11 2.785156 11.785156 2 12.75 2 M 12.75 1.5 C 11.507813 1.5 10.5 2.507813 10.5 3.75 C 10.5 4.992188 11.507813 6 12.75 6 C 13.992188 6 15 4.992188 15 3.75 C 15 2.507813 13.992188 1.5 12.75 1.5 Z "/>
        <path style=" stroke:none;fill-rule:nonzero;fill:#98CCFD;fill-opacity:1;" d="M 0.25 16.25 L 0.25 16 C 0.25 13.933594 1.933594 12.25 4 12.25 C 6.066406 12.25 7.75 13.933594 7.75 16 L 7.75 16.25 Z "/>
        <path style=" stroke:none;fill-rule:nonzero;fill:#4788C7;fill-opacity:1;" d="M 4 12.5 C 5.929688 12.5 7.5 14.070313 7.5 16 L 0.5 16 C 0.5 14.070313 2.070313 12.5 4 12.5 M 4 12 C 1.789063 12 0 13.789063 0 16 L 0 16.5 L 8 16.5 L 8 16 C 8 13.789063 6.210938 12 4 12 Z "/>
        <path style=" stroke:none;fill-rule:nonzero;fill:#DFF0FE;fill-opacity:1;" d="M 12.25 11 C 12.25 12.242188 11.242188 13.25 10 13.25 C 8.757813 13.25 7.75 12.242188 7.75 11 C 7.75 9.757813 8.757813 8.75 10 8.75 C 11.242188 8.75 12.25 9.757813 12.25 11 Z "/>
        <path style=" stroke:none;fill-rule:nonzero;fill:#4788C7;fill-opacity:1;" d="M 10 9 C 11.101563 9 12 9.898438 12 11 C 12 12.101563 11.101563 13 10 13 C 8.898438 13 8 12.101563 8 11 C 8 9.898438 8.898438 9 10 9 M 10 8.5 C 8.621094 8.5 7.5 9.621094 7.5 11 C 7.5 12.378906 8.621094 13.5 10 13.5 C 11.378906 13.5 12.5 12.378906 12.5 11 C 12.5 9.621094 11.378906 8.5 10 8.5 Z "/>
        <path style=" stroke:none;fill-rule:nonzero;fill:#B6DCFE;fill-opacity:1;" d="M 6.25 18.75 L 6.25 18.5 C 6.25 16.433594 7.933594 14.75 10 14.75 C 12.066406 14.75 13.75 16.433594 13.75 18.5 L 13.75 18.75 Z "/>
        <path style=" stroke:none;fill-rule:nonzero;fill:#4788C7;fill-opacity:1;" d="M 10 15 C 11.929688 15 13.5 16.570313 13.5 18.5 L 6.5 18.5 C 6.5 16.570313 8.070313 15 10 15 M 10 14.5 C 7.789063 14.5 6 16.289063 6 18.5 L 6 19 L 14 19 L 14 18.5 C 14 16.289063 12.210938 14.5 10 14.5 Z "/>
    </g>
</svg>
