<?xml version="1.0" encoding="UTF-8"?>
<svg xmlns="http://www.w3.org/2000/svg" xmlns:xlink="http://www.w3.org/1999/xlink" width="12pt" height="12pt" viewBox="0 0 12 12" version="1.1">
    <g id="surface1">
        <path style=" stroke:none;fill-rule:nonzero;fill:#DFF0FE;fill-opacity:1;" d="M 6 11.550781 C 2.574219 11.550781 0.449219 11.097656 0.449219 8.851563 C 0.449219 6.46875 3.925781 2.484375 6 2.484375 C 8.074219 2.484375 11.550781 6.46875 11.550781 8.851563 C 11.550781 11.097656 9.425781 11.550781 6 11.550781 Z "/>
        <path style=" stroke:none;fill-rule:nonzero;fill:#4788C7;fill-opacity:1;" d="M 6 2.636719 C 7.96875 2.636719 11.398438 6.585938 11.398438 8.851563 C 11.398438 10.425781 10.496094 11.398438 6 11.398438 C 2.667969 11.398438 0.601563 10.972656 0.601563 8.851563 C 0.601563 6.585938 4.03125 2.636719 6 2.636719 M 6 2.335938 C 3.851563 2.335938 0.300781 6.375 0.300781 8.851563 C 0.300781 11.324219 2.789063 11.699219 6 11.699219 C 9.210938 11.699219 11.699219 11.324219 11.699219 8.851563 C 11.699219 6.375 8.148438 2.335938 6 2.335938 Z "/>
        <path style=" stroke:none;fill-rule:nonzero;fill:#DFF0FE;fill-opacity:1;" d="M 4.40625 2.851563 C 4.242188 2.769531 3.402344 2.332031 3.308594 1.679688 C 3.6875 1.59375 4.890625 1.351563 6 1.351563 C 7.109375 1.351563 8.3125 1.59375 8.691406 1.679688 C 8.597656 2.332031 7.757813 2.769531 7.59375 2.851563 Z "/>
        <path style=" stroke:none;fill-rule:nonzero;fill:#4788C7;fill-opacity:1;" d="M 6 1.5 C 6.976563 1.5 8.027344 1.691406 8.507813 1.792969 C 8.359375 2.222656 7.832031 2.566406 7.5625 2.699219 L 4.4375 2.699219 C 4.164063 2.5625 3.640625 2.222656 3.492188 1.792969 C 3.972656 1.691406 5.019531 1.5 6 1.5 M 6 1.199219 C 4.628906 1.199219 3.148438 1.558594 3.148438 1.558594 C 3.148438 2.457031 4.371094 3 4.371094 3 L 7.628906 3 C 7.628906 3 8.851563 2.457031 8.851563 1.558594 C 8.851563 1.558594 7.371094 1.199219 6 1.199219 Z "/>
        <path style=" stroke:none;fill-rule:nonzero;fill:#DFF0FE;fill-opacity:1;" d="M 5.277344 2.851563 L 4.171875 0.753906 C 4.421875 0.652344 5.027344 0.449219 6 0.449219 C 6.972656 0.449219 7.578125 0.652344 7.828125 0.753906 L 6.722656 2.851563 Z "/>
        <path style=" stroke:none;fill-rule:nonzero;fill:#4788C7;fill-opacity:1;" d="M 6 0.601563 C 6.785156 0.601563 7.324219 0.734375 7.617188 0.835938 L 6.632813 2.699219 L 5.367188 2.699219 L 4.382813 0.835938 C 4.675781 0.734375 5.214844 0.601563 6 0.601563 M 6 0.300781 C 4.628906 0.300781 3.964844 0.6875 3.964844 0.6875 L 5.1875 3 L 6.816406 3 L 8.035156 0.6875 C 8.035156 0.6875 7.371094 0.300781 6 0.300781 Z "/>
        <path style="fill:none;stroke-width:1;stroke-linecap:round;stroke-linejoin:round;stroke:#4788C7;stroke-opacity:1;stroke-miterlimit:4;" d="M 25.78125 9.505208 L 15.690104 9.505208 C 15.690104 9.505208 12.539063 12.513021 12.539063 21.041667 " transform="matrix(0.3,0,0,0.3,0,0)"/>
        <path style="fill:none;stroke-width:1;stroke-linecap:round;stroke-linejoin:round;stroke:#4788C7;stroke-opacity:1;stroke-miterlimit:4;" d="M 15.716146 9.505208 C 15.716146 9.505208 11.25 11.692708 9.466146 18.320313 " transform="matrix(0.3,0,0,0.3,0,0)"/>
        <path style="fill:none;stroke-width:2;stroke-linecap:butt;stroke-linejoin:miter;stroke:#4788C7;stroke-opacity:1;stroke-miterlimit:4;" d="M 22.994792 22.005208 L 22.994792 21.601563 C 22.994792 20.169271 21.835938 18.997396 20.390625 18.997396 L 19.609375 18.997396 C 18.164063 18.997396 17.005208 20.169271 17.005208 21.601563 C 17.005208 22.473958 17.434896 23.294271 18.164063 23.776042 L 21.835938 26.223958 C 22.565104 26.705729 22.994792 27.526042 22.994792 28.398438 C 22.994792 29.830729 21.835938 31.002604 20.390625 31.002604 L 19.609375 31.002604 C 18.164063 31.002604 17.005208 29.830729 17.005208 28.398438 L 17.005208 27.994792 " transform="matrix(0.3,0,0,0.3,0,0)"/>
        <path style="fill:none;stroke-width:2;stroke-linecap:butt;stroke-linejoin:miter;stroke:#4788C7;stroke-opacity:1;stroke-miterlimit:4;" d="M 20 18.997396 L 20 16.002604 " transform="matrix(0.3,0,0,0.3,0,0)"/>
        <path style="fill:none;stroke-width:2;stroke-linecap:butt;stroke-linejoin:miter;stroke:#4788C7;stroke-opacity:1;stroke-miterlimit:4;" d="M 20 33.997396 L 20 31.002604 " transform="matrix(0.3,0,0,0.3,0,0)"/>
    </g>
</svg>
