<?xml version="1.0" encoding="UTF-8"?>
<svg xmlns="http://www.w3.org/2000/svg" xmlns:xlink="http://www.w3.org/1999/xlink" width="12pt" height="12pt" viewBox="0 0 12 12" version="1.1">
    <g id="surface1">
    <path style=" stroke:none;fill-rule:nonzero;fill:#2684B7;fill-opacity:1;" d="M 7.648438 0.75 C 7.566406 0.75 7.5 0.816406 7.5 0.898438 C 7.5 0.984375 7.566406 1.050781 7.648438 1.050781 C 7.734375 1.050781 7.800781 0.984375 7.800781 0.898438 C 7.800781 0.816406 7.734375 0.75 7.648438 0.75 Z M 9.148438 0.75 C 9.066406 0.75 9 0.816406 9 0.898438 C 9 0.984375 9.066406 1.050781 9.148438 1.050781 C 9.234375 1.050781 9.300781 0.984375 9.300781 0.898438 C 9.300781 0.816406 9.234375 0.75 9.148438 0.75 Z M 10.648438 0.75 C 10.566406 0.75 10.5 0.816406 10.5 0.898438 C 10.5 0.984375 10.566406 1.050781 10.648438 1.050781 C 10.734375 1.050781 10.800781 0.984375 10.800781 0.898438 C 10.800781 0.816406 10.734375 0.75 10.648438 0.75 Z M 6.148438 1.351563 C 6.066406 1.351563 6 1.417969 6 1.5 C 6 1.582031 6.066406 1.648438 6.148438 1.648438 C 6.234375 1.648438 6.300781 1.582031 6.300781 1.5 C 6.300781 1.417969 6.234375 1.351563 6.148438 1.351563 Z M 7.648438 1.351563 C 7.566406 1.351563 7.5 1.417969 7.5 1.5 C 7.5 1.582031 7.566406 1.648438 7.648438 1.648438 C 7.734375 1.648438 7.800781 1.582031 7.800781 1.5 C 7.800781 1.417969 7.734375 1.351563 7.648438 1.351563 Z M 8.398438 1.351563 C 8.316406 1.351563 8.25 1.417969 8.25 1.5 C 8.25 1.582031 8.316406 1.648438 8.398438 1.648438 C 8.484375 1.648438 8.550781 1.582031 8.550781 1.5 C 8.550781 1.417969 8.484375 1.351563 8.398438 1.351563 Z M 9.148438 1.351563 C 9.066406 1.351563 9 1.417969 9 1.5 C 9 1.582031 9.066406 1.648438 9.148438 1.648438 C 9.234375 1.648438 9.300781 1.582031 9.300781 1.5 C 9.300781 1.417969 9.234375 1.351563 9.148438 1.351563 Z M 10.648438 1.351563 C 10.566406 1.351563 10.5 1.417969 10.5 1.5 C 10.5 1.582031 10.566406 1.648438 10.648438 1.648438 C 10.734375 1.648438 10.800781 1.582031 10.800781 1.5 C 10.800781 1.417969 10.734375 1.351563 10.648438 1.351563 Z M 9.898438 1.648438 C 9.816406 1.648438 9.75 1.71875 9.75 1.800781 C 9.75 1.882813 9.816406 1.949219 9.898438 1.949219 C 9.984375 1.949219 10.050781 1.882813 10.050781 1.800781 C 10.050781 1.71875 9.984375 1.648438 9.898438 1.648438 Z M 6.898438 1.800781 C 6.816406 1.800781 6.75 1.867188 6.75 1.949219 C 6.75 2.03125 6.816406 2.101563 6.898438 2.101563 C 6.984375 2.101563 7.050781 2.03125 7.050781 1.949219 C 7.050781 1.867188 6.984375 1.800781 6.898438 1.800781 Z M 7.648438 1.949219 C 7.566406 1.949219 7.5 2.015625 7.5 2.101563 C 7.5 2.183594 7.566406 2.25 7.648438 2.25 C 7.734375 2.25 7.800781 2.183594 7.800781 2.101563 C 7.800781 2.015625 7.734375 1.949219 7.648438 1.949219 Z M 8.398438 1.949219 C 8.316406 1.949219 8.25 2.015625 8.25 2.101563 C 8.25 2.183594 8.316406 2.25 8.398438 2.25 C 8.484375 2.25 8.550781 2.183594 8.550781 2.101563 C 8.550781 2.015625 8.484375 1.949219 8.398438 1.949219 Z M 9.148438 1.949219 C 9.066406 1.949219 9 2.015625 9 2.101563 C 9 2.183594 9.066406 2.25 9.148438 2.25 C 9.234375 2.25 9.300781 2.183594 9.300781 2.101563 C 9.300781 2.015625 9.234375 1.949219 9.148438 1.949219 Z M 9.898438 2.25 C 9.816406 2.25 9.75 2.316406 9.75 2.398438 C 9.75 2.484375 9.816406 2.550781 9.898438 2.550781 C 9.984375 2.550781 10.050781 2.484375 10.050781 2.398438 C 10.050781 2.316406 9.984375 2.25 9.898438 2.25 Z M 6.898438 2.398438 C 6.816406 2.398438 6.75 2.46875 6.75 2.550781 C 6.75 2.632813 6.816406 2.699219 6.898438 2.699219 C 6.984375 2.699219 7.050781 2.632813 7.050781 2.550781 C 7.050781 2.46875 6.984375 2.398438 6.898438 2.398438 Z M 6.148438 2.550781 C 6.066406 2.550781 6 2.617188 6 2.699219 C 6 2.78125 6.066406 2.851563 6.148438 2.851563 C 6.234375 2.851563 6.300781 2.78125 6.300781 2.699219 C 6.300781 2.617188 6.234375 2.550781 6.148438 2.550781 Z M 8.398438 2.550781 C 7.082031 2.550781 6.007813 3.617188 6 4.933594 C 6 4.941406 6 4.945313 6 4.949219 C 6 4.957031 6 4.960938 6 4.964844 C 6.011719 6.28125 7.082031 7.351563 8.398438 7.351563 C 9.71875 7.351563 10.789063 6.28125 10.800781 4.964844 C 10.800781 4.960938 10.800781 4.957031 10.800781 4.949219 C 10.800781 4.945313 10.800781 4.941406 10.800781 4.933594 C 10.796875 4.328125 10.566406 3.769531 10.1875 3.351563 C 9.75 2.859375 9.109375 2.550781 8.398438 2.550781 Z M 10.648438 2.550781 C 10.566406 2.550781 10.5 2.617188 10.5 2.699219 C 10.5 2.78125 10.566406 2.851563 10.648438 2.851563 C 10.734375 2.851563 10.800781 2.78125 10.800781 2.699219 C 10.800781 2.617188 10.734375 2.550781 10.648438 2.550781 Z M 8.398438 2.851563 C 9.023438 2.851563 9.582031 3.121094 9.964844 3.550781 C 10.296875 3.921875 10.5 4.410156 10.5 4.949219 C 10.5 6.113281 9.5625 7.050781 8.398438 7.050781 C 7.238281 7.050781 6.300781 6.113281 6.300781 4.949219 C 6.300781 3.789063 7.238281 2.851563 8.398438 2.851563 Z M 6.148438 3.148438 C 6.066406 3.148438 6 3.21875 6 3.300781 C 6 3.382813 6.066406 3.449219 6.148438 3.449219 C 6.234375 3.449219 6.300781 3.382813 6.300781 3.300781 C 6.300781 3.21875 6.234375 3.148438 6.148438 3.148438 Z M 10.648438 3.148438 C 10.566406 3.148438 10.5 3.21875 10.5 3.300781 C 10.5 3.382813 10.566406 3.449219 10.648438 3.449219 C 10.734375 3.449219 10.800781 3.382813 10.800781 3.300781 C 10.800781 3.21875 10.734375 3.148438 10.648438 3.148438 Z M 8.308594 3.722656 L 8.308594 3.917969 C 7.910156 3.953125 7.667969 4.171875 7.667969 4.507813 C 7.667969 4.792969 7.84375 4.984375 8.171875 5.066406 L 8.308594 5.097656 L 8.308594 5.703125 C 8.109375 5.683594 7.980469 5.566406 7.96875 5.410156 L 7.625 5.410156 C 7.625 5.742188 7.886719 5.96875 8.308594 5.992188 L 8.308594 6.175781 L 8.503906 6.175781 L 8.503906 5.992188 C 8.929688 5.957031 9.175781 5.738281 9.175781 5.386719 C 9.175781 5.085938 9.003906 4.902344 8.644531 4.820313 L 8.503906 4.789063 L 8.503906 4.214844 C 8.675781 4.238281 8.792969 4.355469 8.796875 4.5 L 9.136719 4.5 C 9.128906 4.179688 8.882813 3.953125 8.503906 3.917969 L 8.503906 3.722656 Z M 8.308594 4.210938 L 8.308594 4.746094 C 8.117188 4.707031 8.019531 4.613281 8.019531 4.476563 C 8.019531 4.332031 8.140625 4.222656 8.308594 4.210938 Z M 8.503906 5.136719 C 8.730469 5.179688 8.832031 5.269531 8.832031 5.421875 C 8.832031 5.589844 8.710938 5.691406 8.503906 5.707031 Z M 3.449219 6 C 3.304688 6 3.164063 6.027344 3.03125 6.078125 C 3.027344 6.078125 3.035156 6.074219 3.015625 6.078125 L 3.019531 6.078125 C 2.695313 6.175781 1.160156 6.605469 1.160156 6.605469 C 1.105469 6.617188 1.0625 6.660156 1.050781 6.710938 C 1.035156 6.765625 1.050781 6.820313 1.089844 6.859375 C 1.128906 6.898438 1.1875 6.910156 1.238281 6.894531 C 1.238281 6.894531 2.742188 6.476563 3.097656 6.367188 C 3.109375 6.367188 3.117188 6.363281 3.128906 6.359375 C 3.230469 6.320313 3.335938 6.300781 3.449219 6.300781 C 3.613281 6.300781 3.769531 6.34375 3.902344 6.421875 C 3.90625 6.425781 3.910156 6.429688 3.917969 6.429688 C 3.917969 6.429688 3.917969 6.429688 3.921875 6.433594 C 4.867188 6.878906 6.785156 7.839844 6.789063 7.84375 L 6.792969 7.84375 C 6.78125 7.835938 6.785156 7.839844 6.800781 7.851563 C 6.804688 7.851563 6.808594 7.855469 6.8125 7.855469 C 6.953125 7.933594 7.050781 8.078125 7.050781 8.25 C 7.050781 8.339844 7.023438 8.421875 6.976563 8.492188 C 6.847656 8.699219 6.589844 8.742188 6.351563 8.625 C 6.347656 8.625 6.347656 8.625 6.34375 8.621094 L 6.242188 8.582031 C 6.191406 8.558594 6.132813 8.566406 6.089844 8.597656 C 6.046875 8.632813 6.023438 8.6875 6.03125 8.742188 C 6.039063 8.792969 6.078125 8.839844 6.128906 8.859375 L 6.230469 8.902344 L 6.222656 8.898438 C 6.523438 9.042969 6.890625 9.007813 7.128906 8.78125 L 7.292969 8.890625 C 7.332031 8.921875 7.386719 8.925781 7.433594 8.90625 L 9.894531 7.890625 L 9.832031 7.765625 C 9.867188 7.835938 9.953125 7.867188 10.023438 7.835938 C 10.078125 7.8125 10.136719 7.800781 10.199219 7.800781 C 10.449219 7.800781 10.648438 8 10.648438 8.25 C 10.648438 8.421875 10.554688 8.566406 10.414063 8.644531 C 10.347656 8.679688 10.316406 8.765625 10.347656 8.835938 L 10.292969 8.707031 L 7.335938 10.277344 C 7.339844 10.277344 7.335938 10.277344 7.328125 10.28125 C 7.324219 10.28125 7.316406 10.285156 7.308594 10.289063 C 7.226563 10.328125 7.140625 10.351563 7.050781 10.351563 C 6.960938 10.351563 6.878906 10.328125 6.800781 10.292969 C 6.796875 10.292969 6.792969 10.289063 6.789063 10.289063 C 6.78125 10.285156 6.777344 10.285156 6.785156 10.289063 L 3.058594 8.710938 C 3.023438 8.699219 2.988281 8.695313 2.953125 8.707031 L 1.152344 9.308594 C 1.074219 9.335938 1.03125 9.417969 1.058594 9.496094 C 1.085938 9.574219 1.167969 9.617188 1.246094 9.59375 L 2.992188 9.011719 L 6.664063 10.5625 C 6.6875 10.574219 6.691406 10.574219 6.6875 10.570313 C 6.796875 10.621094 6.917969 10.648438 7.050781 10.648438 C 7.191406 10.648438 7.324219 10.613281 7.4375 10.558594 C 7.449219 10.554688 7.457031 10.554688 7.46875 10.546875 C 7.46875 10.546875 7.472656 10.546875 7.472656 10.546875 L 10.558594 8.910156 C 10.582031 8.894531 10.601563 8.875 10.617188 8.851563 C 10.808594 8.714844 10.949219 8.503906 10.949219 8.25 C 10.949219 7.835938 10.613281 7.5 10.199219 7.5 C 10.117188 7.5 10.042969 7.523438 9.96875 7.546875 C 9.949219 7.546875 9.925781 7.550781 9.910156 7.558594 L 7.394531 8.597656 L 7.269531 8.515625 C 7.304688 8.429688 7.351563 8.347656 7.351563 8.25 C 7.351563 7.964844 7.1875 7.71875 6.953125 7.59375 L 6.964844 7.597656 C 6.96875 7.601563 6.960938 7.59375 6.933594 7.578125 C 6.933594 7.578125 6.929688 7.578125 6.929688 7.574219 C 6.929688 7.574219 5 6.609375 4.046875 6.160156 C 4.042969 6.160156 4.042969 6.15625 4.042969 6.15625 C 4.027344 6.148438 4.023438 6.148438 4.03125 6.152344 C 3.859375 6.058594 3.660156 6 3.449219 6 Z M 4.351563 7.949219 C 4.265625 7.949219 4.199219 8.015625 4.199219 8.101563 C 4.199219 8.183594 4.265625 8.25 4.351563 8.25 C 4.433594 8.25 4.5 8.183594 4.5 8.101563 C 4.5 8.015625 4.433594 7.949219 4.351563 7.949219 Z M 4.800781 8.101563 C 4.71875 8.101563 4.648438 8.167969 4.648438 8.25 C 4.648438 8.332031 4.71875 8.398438 4.800781 8.398438 C 4.882813 8.398438 4.949219 8.332031 4.949219 8.25 C 4.949219 8.167969 4.882813 8.101563 4.800781 8.101563 Z M 5.25 8.25 C 5.167969 8.25 5.101563 8.316406 5.101563 8.398438 C 5.101563 8.484375 5.167969 8.550781 5.25 8.550781 C 5.332031 8.550781 5.398438 8.484375 5.398438 8.398438 C 5.398438 8.316406 5.332031 8.25 5.25 8.25 Z M 5.699219 8.398438 C 5.617188 8.398438 5.550781 8.46875 5.550781 8.550781 C 5.550781 8.632813 5.617188 8.699219 5.699219 8.699219 C 5.78125 8.699219 5.851563 8.632813 5.851563 8.550781 C 5.851563 8.46875 5.78125 8.398438 5.699219 8.398438 Z "/>
    </g>
</svg>
