<?xml version="1.0" encoding="UTF-8"?>
<svg xmlns="http://www.w3.org/2000/svg" xmlns:xlink="http://www.w3.org/1999/xlink" width="12pt" height="12pt" viewBox="0 0 12 12" version="1.1">
    <g id="surface1">
        <path style=" stroke:none;fill-rule:nonzero;fill:#2684B7;fill-opacity:1;" d="M 10.8125 9.382813 L 9.144531 11.050781 C 9.054688 11.144531 8.929688 11.191406 8.808594 11.191406 C 8.6875 11.191406 8.566406 11.144531 8.472656 11.050781 L 6.804688 9.382813 C 6.621094 9.199219 6.621094 8.898438 6.804688 8.710938 C 6.992188 8.523438 7.292969 8.523438 7.480469 8.710938 L 8.332031 9.566406 L 8.332031 4.046875 C 8.332031 3.785156 8.546875 3.570313 8.808594 3.570313 C 9.074219 3.570313 9.285156 3.785156 9.285156 4.046875 L 9.285156 9.566406 L 10.140625 8.710938 C 10.324219 8.523438 10.625 8.523438 10.8125 8.710938 C 11 8.898438 11 9.199219 10.8125 9.382813 Z M 8.808594 1.667969 C 9.074219 1.667969 9.285156 1.453125 9.285156 1.191406 C 9.285156 0.925781 9.074219 0.714844 8.808594 0.714844 C 8.546875 0.714844 8.332031 0.925781 8.332031 1.191406 C 8.332031 1.453125 8.546875 1.667969 8.808594 1.667969 Z M 8.808594 3.09375 C 9.074219 3.09375 9.285156 2.882813 9.285156 2.617188 C 9.285156 2.355469 9.074219 2.144531 8.808594 2.144531 C 8.546875 2.144531 8.332031 2.355469 8.332031 2.617188 C 8.332031 2.882813 8.546875 3.09375 8.808594 3.09375 Z M 3.433594 0.855469 C 3.246094 0.667969 2.945313 0.667969 2.757813 0.855469 L 1.09375 2.519531 C 0.90625 2.707031 0.90625 3.007813 1.09375 3.195313 C 1.277344 3.378906 1.578125 3.378906 1.765625 3.195313 L 2.617188 2.339844 L 2.617188 7.855469 C 2.617188 8.121094 2.832031 8.332031 3.09375 8.332031 C 3.359375 8.332031 3.570313 8.121094 3.570313 7.855469 L 3.570313 2.339844 L 4.425781 3.195313 C 4.519531 3.285156 4.640625 3.332031 4.761719 3.332031 C 4.882813 3.332031 5.003906 3.285156 5.097656 3.195313 C 5.285156 3.007813 5.285156 2.707031 5.097656 2.519531 Z M 3.09375 10.238281 C 2.832031 10.238281 2.617188 10.449219 2.617188 10.714844 C 2.617188 10.976563 2.832031 11.191406 3.09375 11.191406 C 3.359375 11.191406 3.570313 10.976563 3.570313 10.714844 C 3.570313 10.449219 3.359375 10.238281 3.09375 10.238281 Z M 3.09375 8.808594 C 2.832031 8.808594 2.617188 9.023438 2.617188 9.285156 C 2.617188 9.550781 2.832031 9.761719 3.09375 9.761719 C 3.359375 9.761719 3.570313 9.550781 3.570313 9.285156 C 3.570313 9.023438 3.359375 8.808594 3.09375 8.808594 Z "/>
    </g>
</svg>
