<?xml version="1.0" encoding="UTF-8"?>
<svg xmlns="http://www.w3.org/2000/svg" xmlns:xlink="http://www.w3.org/1999/xlink" width="30pt" height="30pt" viewBox="0 0 30 30" version="1.1">
    <g id="surface1">
        <path style=" stroke:none;fill-rule:nonzero;fill:#F64E60;fill-opacity:1;" d="M 14.835938 1.933594 C 14.585938 1.933594 14.332031 2.035156 14.140625 2.226563 L 7.164063 9.207031 C 6.972656 9.394531 6.875 9.644531 6.875 9.902344 C 6.875 10.03125 6.894531 10.15625 6.945313 10.28125 C 7.097656 10.652344 7.464844 10.890625 7.859375 10.890625 L 11.875 10.890625 L 11.875 25.691406 C 11.875 26.785156 12.757813 27.667969 13.851563 27.667969 L 15.824219 27.667969 C 16.914063 27.667969 17.796875 26.785156 17.796875 25.691406 L 17.796875 10.890625 L 21.816406 10.890625 C 22.210938 10.890625 22.574219 10.652344 22.726563 10.28125 C 22.878906 9.910156 22.792969 9.488281 22.511719 9.207031 L 15.535156 2.226563 C 15.34375 2.035156 15.089844 1.933594 14.835938 1.933594 Z "/>
    </g>
</svg>
