<?xml version="1.0" encoding="UTF-8"?>
<svg xmlns="http://www.w3.org/2000/svg" xmlns:xlink="http://www.w3.org/1999/xlink" width="30pt" height="30pt" viewBox="0 0 30 30" version="1.1">
<g id="surface1">
<path style=" stroke:none;fill-rule:nonzero;fill:#F64E60;fill-opacity:1;" d="M 4.933594 25.65625 C 4.957031 25.65625 7.339844 25.636719 9.757813 23.765625 C 12.890625 21.347656 14.621094 16.894531 14.789063 10.855469 L 10.855469 10.855469 C 10.457031 10.855469 10.097656 10.617188 9.941406 10.246094 C 9.792969 9.875 9.875 9.453125 10.15625 9.171875 L 17.066406 2.261719 C 17.449219 1.878906 18.074219 1.878906 18.460938 2.261719 L 25.367188 9.171875 C 25.648438 9.453125 25.734375 9.875 25.585938 10.246094 C 25.429688 10.617188 25.066406 10.855469 24.671875 10.855469 L 20.707031 10.855469 C 20.175781 27.152344 6.519531 27.632813 4.933594 27.632813 C 4.386719 27.632813 3.949219 27.1875 3.949219 26.644531 C 3.949219 26.101563 4.386719 25.65625 4.933594 25.65625 Z "/>
</g>
</svg>
