<?xml version="1.0" encoding="UTF-8"?>
<svg xmlns="http://www.w3.org/2000/svg" xmlns:xlink="http://www.w3.org/1999/xlink" width="64pt" height="64pt" viewBox="0 0 64 64" version="1.1">
<defs>
<radialGradient id="radial0" gradientUnits="userSpaceOnUse" cx="32.5" cy="32" fx="32.5" fy="32" r="30.2758" spreadMethod="reflect" >
<stop offset="0" style="stop-color:#AFEEFF;stop-opacity:1;"/>
<stop offset="0.1927" style="stop-color:#BBF1FF;stop-opacity:1;"/>
<stop offset="0.7025" style="stop-color:#D7F8FF;stop-opacity:1;"/>
<stop offset="1" style="stop-color:#E1FAFF;stop-opacity:1;"/>
</radialGradient>
<linearGradient id="linear0" gradientUnits="userSpaceOnUse" x1="32" y1="57.9975" x2="32" y2="6" spreadMethod="reflect" >
<stop offset="0" style="stop-color:#155CDE;stop-opacity:1;"/>
<stop offset="0.2782" style="stop-color:#1F7FE5;stop-opacity:1;"/>
<stop offset="0.5693" style="stop-color:#279CEB;stop-opacity:1;"/>
<stop offset="0.8201" style="stop-color:#2CAFEF;stop-opacity:1;"/>
<stop offset="1" style="stop-color:#2EB5F0;stop-opacity:1;"/>
</linearGradient>
</defs>
<g id="surface1">
<path style=" stroke:none;fill-rule:nonzero;fill:url(#radial0);" d="M 59 21 L 60.5 21 C 62.667969 21 64.390625 19.003906 63.921875 16.757813 C 63.578125 15.121094 62.054688 14 60.386719 14 L 51 14 C 49.894531 14 49 13.105469 49 12 C 49 10.894531 49.894531 10 51 10 L 54.386719 10 C 56.054688 10 57.578125 8.878906 57.921875 7.242188 C 58.390625 4.996094 56.667969 3 54.5 3 L 8.5 3 C 6.574219 3 5 4.574219 5 6.5 C 5 8.425781 6.574219 10 8.5 10 L 11 10 C 12.105469 10 13 10.894531 13 12 C 13 13.105469 12.105469 14 11 14 L 4.613281 14 C 2.945313 14 1.421875 15.121094 1.078125 16.757813 C 0.609375 19.003906 2.332031 21 4.5 21 L 18 21 L 18 32 L 4.613281 32 C 2.945313 32 1.421875 33.121094 1.078125 34.757813 C 0.609375 37.003906 2.332031 39 4.5 39 L 7 39 C 8.105469 39 9 39.894531 9 41 C 9 42.105469 8.105469 43 7 43 L 4.5 43 C 2.332031 43 0.609375 44.996094 1.078125 47.242188 C 1.421875 48.878906 2.945313 50 4.613281 50 L 12 50 C 13.105469 50 14 50.894531 14 52 C 14 53.105469 13.105469 54 12 54 L 8.613281 54 C 6.945313 54 5.421875 55.121094 5.078125 56.757813 C 4.609375 59.003906 6.332031 61 8.5 61 L 53.5 61 C 55.425781 61 57 59.425781 57 57.5 C 57 55.574219 55.425781 54 53.5 54 L 52 54 C 50.894531 54 50 53.105469 50 52 C 50 50.894531 50.894531 50 52 50 L 57.386719 50 C 59.054688 50 60.578125 48.878906 60.921875 47.242188 C 61.390625 44.996094 59.667969 43 57.5 43 L 47 43 L 47 32 L 59.386719 32 C 61.054688 32 62.578125 30.878906 62.921875 29.242188 C 63.390625 26.996094 61.667969 25 59.5 25 L 59 25 C 57.894531 25 57 24.105469 57 23 C 57 21.894531 57.894531 21 59 21 Z "/>
<path style=" stroke:none;fill-rule:nonzero;fill:url(#linear0);" d="M 43 11.003906 C 39.429688 9.78125 36.539063 8.183594 34.347656 6.714844 C 32.925781 5.761719 31.078125 5.761719 29.652344 6.714844 C 27.460938 8.183594 24.574219 9.78125 21 11.003906 C 17.109375 12.335938 13.601563 12.816406 10.886719 12.957031 C 9.820313 13.011719 9 13.890625 9.003906 14.957031 C 9.039063 25.628906 9.699219 38.699219 21 50 C 22.660156 51.660156 26.960938 55.082031 29.667969 57.195313 C 31.039063 58.265625 32.960938 58.265625 34.332031 57.195313 C 37.039063 55.082031 41.339844 51.660156 43 50 C 54.300781 38.699219 54.957031 25.628906 54.996094 14.957031 C 55 13.890625 54.175781 13.011719 53.113281 12.953125 C 50.398438 12.816406 46.890625 12.335938 43 11.003906 Z "/>
<path style=" stroke:none;fill-rule:nonzero;fill:#FFFFFF;fill-opacity:1;" d="M 37 24 C 37 26.765625 34.765625 29 32 29 C 29.234375 29 27 26.765625 27 24 C 27 21.234375 29.234375 19 32 19 C 34.765625 19 37 21.234375 37 24 Z "/>
<path style=" stroke:none;fill-rule:nonzero;fill:#FFFFFF;fill-opacity:1;" d="M 32 32 C 26.855469 32 22.621094 35.054688 22 39 C 22 39.550781 22.449219 40 23 40 L 41 40 C 41.550781 40 42 39.550781 42 39 C 41.378906 35.054688 37.144531 32 32 32 Z "/>
</g>
</svg>
