<?xml version="1.0" encoding="UTF-8"?>
<svg xmlns="http://www.w3.org/2000/svg" xmlns:xlink="http://www.w3.org/1999/xlink" width="26pt" height="26pt" viewBox="0 0 26 26" version="1.1">
    <g id="surface1">
        <path style=" stroke:none;fill-rule:nonzero;fill:#254225;fill-opacity:1;" d="M 16.375 0.03125 C 16.105469 0.03125 15.851563 0.285156 15.851563 0.585938 L 15.851563 4.246094 C 15.851563 4.246094 15.226563 0.738281 14.925781 0.832031 C 13.941406 1.132813 13.121094 1.710938 12.558594 2.460938 C 14.222656 3.382813 15.398438 4.933594 15.757813 6.738281 C 15.816406 6.777344 15.859375 6.847656 15.910156 6.894531 L 22.960938 6.894531 C 22.960938 4.757813 21.789063 5.46875 21.789063 4.984375 C 21.789063 3.089844 20.480469 1.414063 18.558594 0.832031 C 18.257813 0.738281 17.636719 4.246094 17.636719 4.246094 L 17.636719 0.585938 C 17.636719 0.285156 17.386719 0.03125 17.113281 0.03125 Z M 8.496094 2.984375 C 8.226563 2.984375 7.972656 3.238281 7.972656 3.539063 L 7.972656 7.203125 C 7.972656 7.203125 7.347656 3.691406 7.046875 3.785156 C 5.128906 4.371094 3.816406 6.046875 3.816406 7.941406 C 3.816406 8.425781 2.648438 7.734375 2.648438 9.847656 L 15.082031 9.847656 C 15.082031 7.714844 13.910156 8.425781 13.910156 7.941406 C 13.910156 6.042969 12.601563 4.371094 10.679688 3.785156 C 10.378906 3.691406 9.757813 7.203125 9.757813 7.203125 L 9.757813 3.539063 C 9.757813 3.238281 9.507813 2.984375 9.234375 2.984375 Z M 16.710938 7.941406 C 16.929688 8.460938 17.050781 9.113281 17.050781 9.847656 C 17.050781 10.878906 16.246094 11.703125 15.234375 11.789063 C 15.078125 13.894531 14.34375 15.105469 13.511719 16.066406 C 15.957031 17.03125 19.605469 18.957031 19.605469 21.945313 L 19.605469 22.4375 C 22.796875 22.199219 25.515625 21.460938 25.515625 19.636719 L 25.515625 18.988281 C 25.515625 17.207031 22.394531 15.480469 19.605469 14.558594 C 19.476563 14.515625 18.667969 14.144531 19.171875 12.617188 L 19.144531 12.617188 C 20.328125 11.398438 21.175781 10.570313 21.175781 7.941406 Z M 4.460938 10.894531 C 4.460938 13.554688 5.269531 14.355469 6.464844 15.574219 C 6.980469 16.917969 6.070313 17.441406 5.878906 17.511719 C 3.21875 18.472656 0.09375 20.210938 0.09375 21.945313 L 0.09375 22.589844 C 0.09375 24.949219 4.664063 25.484375 8.894531 25.484375 C 13.132813 25.484375 17.636719 24.949219 17.636719 22.589844 L 17.636719 21.945313 C 17.636719 20.164063 14.515625 18.433594 11.726563 17.511719 C 11.597656 17.46875 10.789063 17.101563 11.296875 15.574219 L 11.265625 15.574219 C 12.449219 14.351563 13.296875 13.527344 13.296875 10.894531 Z "/>
    </g>
</svg>
